<svg width="744" height="175" viewBox="0 0 744 175" fill="none" xmlns="http://www.w3.org/2000/svg">
<path d="M0 78C0 34.9218 34.9218 0 78 0H81V58C81 69.0457 72.0457 78 61 78H0V78Z" fill="#F4CE47"/>
<path d="M99 0C142.078 0 177 34.9218 177 78V78H113C101.954 78 93 69.0457 93 58V0L99 0Z" fill="#F4CE47"/>
<path d="M81 175C36.2649 175 0 138.735 0 94L0 91H61C72.0457 91 81 99.9543 81 111V175V175Z" fill="#F4CE47"/>
<path d="M177 91C177 137.392 139.392 175 93 175V175L93 111C93 99.9543 101.954 91 113 91L177 91V91Z" fill="#F4CE47"/>
<g filter="url(#filter0_d_2_16)">
<mask id="path-5-outside-1_2_16" maskUnits="userSpaceOnUse" x="212" y="55" width="529" height="57" fill="black">
<rect fill="white" x="212" y="55" width="529" height="57"/>
<path d="M213.551 110V57.6364H234.517C238.369 57.6364 241.582 58.2074 244.156 59.3494C246.73 60.4915 248.665 62.0767 249.96 64.1051C251.256 66.1165 251.903 68.4347 251.903 71.0597C251.903 73.1051 251.494 74.9034 250.676 76.4545C249.858 77.9886 248.733 79.25 247.301 80.2386C245.886 81.2102 244.267 81.9006 242.443 82.3097V82.821C244.438 82.9062 246.304 83.4687 248.043 84.5085C249.798 85.5483 251.222 87.0057 252.312 88.8807C253.403 90.7386 253.949 92.9545 253.949 95.5284C253.949 98.3068 253.259 100.787 251.878 102.969C250.514 105.134 248.494 106.847 245.818 108.108C243.142 109.369 239.844 110 235.923 110H213.551ZM224.622 100.949H233.648C236.733 100.949 238.983 100.361 240.398 99.1847C241.813 97.9915 242.52 96.4062 242.52 94.429C242.52 92.9801 242.17 91.7017 241.472 90.5938C240.773 89.4858 239.776 88.6165 238.48 87.9858C237.202 87.3551 235.676 87.0398 233.903 87.0398H224.622V100.949ZM224.622 79.5483H232.83C234.347 79.5483 235.693 79.2841 236.869 78.7557C238.063 78.2102 239 77.4432 239.682 76.4545C240.381 75.4659 240.73 74.2812 240.73 72.9006C240.73 71.0085 240.057 69.483 238.71 68.3239C237.381 67.1648 235.489 66.5852 233.034 66.5852H224.622V79.5483ZM268.624 57.6364V110H257.553V57.6364H268.624ZM308.854 74.5625C308.496 73.3182 307.993 72.2187 307.345 71.2642C306.698 70.2926 305.905 69.4744 304.968 68.8097C304.047 68.1278 302.99 67.608 301.797 67.25C300.621 66.892 299.317 66.7131 297.885 66.7131C295.209 66.7131 292.857 67.3778 290.828 68.7074C288.817 70.0369 287.249 71.9716 286.124 74.5114C284.999 77.0341 284.436 80.1193 284.436 83.767C284.436 87.4148 284.99 90.517 286.098 93.0739C287.206 95.6307 288.774 97.5824 290.803 98.929C292.831 100.259 295.226 100.923 297.987 100.923C300.493 100.923 302.632 100.48 304.405 99.5938C306.195 98.6903 307.559 97.4205 308.496 95.7841C309.451 94.1477 309.928 92.2131 309.928 89.9801L312.178 90.3125H298.678V81.9773H320.59V88.5739C320.59 93.1761 319.618 97.1307 317.675 100.438C315.732 103.727 313.056 106.267 309.647 108.057C306.237 109.83 302.334 110.716 297.936 110.716C293.027 110.716 288.715 109.634 284.999 107.469C281.283 105.287 278.385 102.193 276.306 98.1875C274.243 94.1648 273.212 89.392 273.212 83.8693C273.212 79.625 273.826 75.8409 275.053 72.517C276.297 69.1761 278.036 66.3466 280.269 64.0284C282.502 61.7102 285.101 59.946 288.067 58.7358C291.033 57.5256 294.246 56.9205 297.706 56.9205C300.672 56.9205 303.434 57.3551 305.99 58.2244C308.547 59.0767 310.814 60.2869 312.791 61.8551C314.786 63.4233 316.414 65.2898 317.675 67.4545C318.936 69.6023 319.746 71.9716 320.104 74.5625H308.854ZM338.37 110V57.6364H359.336C363.188 57.6364 366.401 58.2074 368.975 59.3494C371.549 60.4915 373.484 62.0767 374.779 64.1051C376.074 66.1165 376.722 68.4347 376.722 71.0597C376.722 73.1051 376.313 74.9034 375.495 76.4545C374.677 77.9886 373.552 79.25 372.12 80.2386C370.705 81.2102 369.086 81.9006 367.262 82.3097V82.821C369.256 82.9062 371.123 83.4687 372.861 84.5085C374.617 85.5483 376.04 87.0057 377.131 88.8807C378.222 90.7386 378.768 92.9545 378.768 95.5284C378.768 98.3068 378.077 100.787 376.697 102.969C375.333 105.134 373.313 106.847 370.637 108.108C367.961 109.369 364.662 110 360.742 110H338.37ZM349.441 100.949H358.466C361.552 100.949 363.802 100.361 365.216 99.1847C366.631 97.9915 367.339 96.4062 367.339 94.429C367.339 92.9801 366.989 91.7017 366.29 90.5938C365.591 89.4858 364.594 88.6165 363.299 87.9858C362.02 87.3551 360.495 87.0398 358.722 87.0398H349.441V100.949ZM349.441 79.5483H357.648C359.165 79.5483 360.512 79.2841 361.688 78.7557C362.881 78.2102 363.819 77.4432 364.501 76.4545C365.199 75.4659 365.549 74.2812 365.549 72.9006C365.549 71.0085 364.876 69.483 363.529 68.3239C362.199 67.1648 360.307 66.5852 357.853 66.5852H349.441V79.5483ZM430.491 83.8182C430.491 89.5284 429.408 94.3864 427.244 98.392C425.096 102.398 422.164 105.457 418.448 107.571C414.749 109.668 410.59 110.716 405.971 110.716C401.317 110.716 397.141 109.659 393.442 107.545C389.744 105.432 386.82 102.372 384.673 98.3665C382.525 94.3608 381.451 89.5114 381.451 83.8182C381.451 78.108 382.525 73.25 384.673 69.2443C386.82 65.2386 389.744 62.1875 393.442 60.0909C397.141 57.9773 401.317 56.9205 405.971 56.9205C410.59 56.9205 414.749 57.9773 418.448 60.0909C422.164 62.1875 425.096 65.2386 427.244 69.2443C429.408 73.25 430.491 78.108 430.491 83.8182ZM419.266 83.8182C419.266 80.1193 418.712 77 417.604 74.4602C416.513 71.9205 414.971 69.9943 412.977 68.6818C410.982 67.3693 408.647 66.7131 405.971 66.7131C403.295 66.7131 400.96 67.3693 398.965 68.6818C396.971 69.9943 395.42 71.9205 394.312 74.4602C393.221 77 392.675 80.1193 392.675 83.8182C392.675 87.517 393.221 90.6364 394.312 93.1761C395.42 95.7159 396.971 97.642 398.965 98.9545C400.96 100.267 403.295 100.923 405.971 100.923C408.647 100.923 410.982 100.267 412.977 98.9545C414.971 97.642 416.513 95.7159 417.604 93.1761C418.712 90.6364 419.266 87.517 419.266 83.8182ZM483.211 83.8182C483.211 89.5284 482.129 94.3864 479.964 98.392C477.816 102.398 474.884 105.457 471.168 107.571C467.47 109.668 463.311 110.716 458.691 110.716C454.038 110.716 449.862 109.659 446.163 107.545C442.464 105.432 439.541 102.372 437.393 98.3665C435.245 94.3608 434.171 89.5114 434.171 83.8182C434.171 78.108 435.245 73.25 437.393 69.2443C439.541 65.2386 442.464 62.1875 446.163 60.0909C449.862 57.9773 454.038 56.9205 458.691 56.9205C463.311 56.9205 467.47 57.9773 471.168 60.0909C474.884 62.1875 477.816 65.2386 479.964 69.2443C482.129 73.25 483.211 78.108 483.211 83.8182ZM471.987 83.8182C471.987 80.1193 471.433 77 470.325 74.4602C469.234 71.9205 467.691 69.9943 465.697 68.6818C463.703 67.3693 461.367 66.7131 458.691 66.7131C456.015 66.7131 453.68 67.3693 451.686 68.6818C449.691 69.9943 448.14 71.9205 447.032 74.4602C445.941 77 445.396 80.1193 445.396 83.8182C445.396 87.517 445.941 90.6364 447.032 93.1761C448.14 95.7159 449.691 97.642 451.686 98.9545C453.68 100.267 456.015 100.923 458.691 100.923C461.367 100.923 463.703 100.267 465.697 98.9545C467.691 97.642 469.234 95.7159 470.325 93.1761C471.433 90.6364 471.987 87.517 471.987 83.8182ZM487.812 110V57.6364H498.883V80.7244H499.573L518.417 57.6364H531.687L512.255 81.0824L531.917 110H518.673L504.329 88.4716L498.883 95.1193V110H487.812ZM561.837 72.696C561.633 70.6335 560.755 69.0312 559.204 67.8892C557.652 66.7472 555.547 66.1761 552.888 66.1761C551.081 66.1761 549.556 66.4318 548.312 66.9432C547.067 67.4375 546.113 68.1278 545.448 69.0142C544.8 69.9006 544.476 70.9062 544.476 72.0312C544.442 72.9688 544.638 73.7869 545.064 74.4858C545.508 75.1847 546.113 75.7898 546.88 76.3011C547.647 76.7955 548.533 77.2301 549.539 77.6051C550.544 77.9631 551.618 78.2699 552.76 78.5256L557.465 79.6506C559.749 80.1619 561.846 80.8437 563.755 81.696C565.664 82.5483 567.317 83.5966 568.715 84.8409C570.113 86.0852 571.195 87.5511 571.962 89.2386C572.746 90.9261 573.147 92.8608 573.164 95.0426C573.147 98.2472 572.329 101.026 570.709 103.378C569.107 105.713 566.789 107.528 563.755 108.824C560.738 110.102 557.098 110.741 552.837 110.741C548.61 110.741 544.928 110.094 541.792 108.798C538.672 107.503 536.235 105.585 534.479 103.045C532.74 100.489 531.829 97.3267 531.743 93.5597H542.456C542.576 95.3153 543.079 96.7812 543.965 97.9574C544.868 99.1165 546.07 99.9943 547.57 100.591C549.087 101.17 550.8 101.46 552.709 101.46C554.584 101.46 556.212 101.187 557.593 100.642C558.99 100.097 560.073 99.3381 560.84 98.3665C561.607 97.3949 561.99 96.2784 561.99 95.017C561.99 93.8409 561.641 92.8523 560.942 92.0511C560.26 91.25 559.255 90.5682 557.925 90.0057C556.613 89.4432 555.002 88.9318 553.093 88.4716L547.391 87.0398C542.976 85.9659 539.49 84.2869 536.934 82.0028C534.377 79.7187 533.107 76.642 533.124 72.7727C533.107 69.6023 533.951 66.8324 535.655 64.4631C537.377 62.0938 539.738 60.2443 542.738 58.9148C545.738 57.5852 549.147 56.9205 552.965 56.9205C556.851 56.9205 560.243 57.5852 563.141 58.9148C566.056 60.2443 568.323 62.0938 569.942 64.4631C571.562 66.8324 572.397 69.5767 572.448 72.696H561.837ZM577.011 110V57.6364H588.082V79.2415H610.556V57.6364H621.601V110H610.556V88.3693H588.082V110H577.011ZM627.129 110V57.6364H662.413V66.7642H638.2V79.2415H660.598V88.3693H638.2V100.872H662.516V110H627.129ZM667.615 110V57.6364H678.686V100.872H701.135V110H667.615ZM704.867 110V57.6364H739.537V66.7642H715.938V79.2415H737.236V88.3693H715.938V110H704.867Z"/>
</mask>
<path d="M213.551 110V57.6364H234.517C238.369 57.6364 241.582 58.2074 244.156 59.3494C246.73 60.4915 248.665 62.0767 249.96 64.1051C251.256 66.1165 251.903 68.4347 251.903 71.0597C251.903 73.1051 251.494 74.9034 250.676 76.4545C249.858 77.9886 248.733 79.25 247.301 80.2386C245.886 81.2102 244.267 81.9006 242.443 82.3097V82.821C244.438 82.9062 246.304 83.4687 248.043 84.5085C249.798 85.5483 251.222 87.0057 252.312 88.8807C253.403 90.7386 253.949 92.9545 253.949 95.5284C253.949 98.3068 253.259 100.787 251.878 102.969C250.514 105.134 248.494 106.847 245.818 108.108C243.142 109.369 239.844 110 235.923 110H213.551ZM224.622 100.949H233.648C236.733 100.949 238.983 100.361 240.398 99.1847C241.813 97.9915 242.52 96.4062 242.52 94.429C242.52 92.9801 242.17 91.7017 241.472 90.5938C240.773 89.4858 239.776 88.6165 238.48 87.9858C237.202 87.3551 235.676 87.0398 233.903 87.0398H224.622V100.949ZM224.622 79.5483H232.83C234.347 79.5483 235.693 79.2841 236.869 78.7557C238.063 78.2102 239 77.4432 239.682 76.4545C240.381 75.4659 240.73 74.2812 240.73 72.9006C240.73 71.0085 240.057 69.483 238.71 68.3239C237.381 67.1648 235.489 66.5852 233.034 66.5852H224.622V79.5483ZM268.624 57.6364V110H257.553V57.6364H268.624ZM308.854 74.5625C308.496 73.3182 307.993 72.2187 307.345 71.2642C306.698 70.2926 305.905 69.4744 304.968 68.8097C304.047 68.1278 302.99 67.608 301.797 67.25C300.621 66.892 299.317 66.7131 297.885 66.7131C295.209 66.7131 292.857 67.3778 290.828 68.7074C288.817 70.0369 287.249 71.9716 286.124 74.5114C284.999 77.0341 284.436 80.1193 284.436 83.767C284.436 87.4148 284.99 90.517 286.098 93.0739C287.206 95.6307 288.774 97.5824 290.803 98.929C292.831 100.259 295.226 100.923 297.987 100.923C300.493 100.923 302.632 100.48 304.405 99.5938C306.195 98.6903 307.559 97.4205 308.496 95.7841C309.451 94.1477 309.928 92.2131 309.928 89.9801L312.178 90.3125H298.678V81.9773H320.59V88.5739C320.59 93.1761 319.618 97.1307 317.675 100.438C315.732 103.727 313.056 106.267 309.647 108.057C306.237 109.83 302.334 110.716 297.936 110.716C293.027 110.716 288.715 109.634 284.999 107.469C281.283 105.287 278.385 102.193 276.306 98.1875C274.243 94.1648 273.212 89.392 273.212 83.8693C273.212 79.625 273.826 75.8409 275.053 72.517C276.297 69.1761 278.036 66.3466 280.269 64.0284C282.502 61.7102 285.101 59.946 288.067 58.7358C291.033 57.5256 294.246 56.9205 297.706 56.9205C300.672 56.9205 303.434 57.3551 305.99 58.2244C308.547 59.0767 310.814 60.2869 312.791 61.8551C314.786 63.4233 316.414 65.2898 317.675 67.4545C318.936 69.6023 319.746 71.9716 320.104 74.5625H308.854ZM338.37 110V57.6364H359.336C363.188 57.6364 366.401 58.2074 368.975 59.3494C371.549 60.4915 373.484 62.0767 374.779 64.1051C376.074 66.1165 376.722 68.4347 376.722 71.0597C376.722 73.1051 376.313 74.9034 375.495 76.4545C374.677 77.9886 373.552 79.25 372.12 80.2386C370.705 81.2102 369.086 81.9006 367.262 82.3097V82.821C369.256 82.9062 371.123 83.4687 372.861 84.5085C374.617 85.5483 376.04 87.0057 377.131 88.8807C378.222 90.7386 378.768 92.9545 378.768 95.5284C378.768 98.3068 378.077 100.787 376.697 102.969C375.333 105.134 373.313 106.847 370.637 108.108C367.961 109.369 364.662 110 360.742 110H338.37ZM349.441 100.949H358.466C361.552 100.949 363.802 100.361 365.216 99.1847C366.631 97.9915 367.339 96.4062 367.339 94.429C367.339 92.9801 366.989 91.7017 366.29 90.5938C365.591 89.4858 364.594 88.6165 363.299 87.9858C362.02 87.3551 360.495 87.0398 358.722 87.0398H349.441V100.949ZM349.441 79.5483H357.648C359.165 79.5483 360.512 79.2841 361.688 78.7557C362.881 78.2102 363.819 77.4432 364.501 76.4545C365.199 75.4659 365.549 74.2812 365.549 72.9006C365.549 71.0085 364.876 69.483 363.529 68.3239C362.199 67.1648 360.307 66.5852 357.853 66.5852H349.441V79.5483ZM430.491 83.8182C430.491 89.5284 429.408 94.3864 427.244 98.392C425.096 102.398 422.164 105.457 418.448 107.571C414.749 109.668 410.59 110.716 405.971 110.716C401.317 110.716 397.141 109.659 393.442 107.545C389.744 105.432 386.82 102.372 384.673 98.3665C382.525 94.3608 381.451 89.5114 381.451 83.8182C381.451 78.108 382.525 73.25 384.673 69.2443C386.82 65.2386 389.744 62.1875 393.442 60.0909C397.141 57.9773 401.317 56.9205 405.971 56.9205C410.59 56.9205 414.749 57.9773 418.448 60.0909C422.164 62.1875 425.096 65.2386 427.244 69.2443C429.408 73.25 430.491 78.108 430.491 83.8182ZM419.266 83.8182C419.266 80.1193 418.712 77 417.604 74.4602C416.513 71.9205 414.971 69.9943 412.977 68.6818C410.982 67.3693 408.647 66.7131 405.971 66.7131C403.295 66.7131 400.96 67.3693 398.965 68.6818C396.971 69.9943 395.42 71.9205 394.312 74.4602C393.221 77 392.675 80.1193 392.675 83.8182C392.675 87.517 393.221 90.6364 394.312 93.1761C395.42 95.7159 396.971 97.642 398.965 98.9545C400.96 100.267 403.295 100.923 405.971 100.923C408.647 100.923 410.982 100.267 412.977 98.9545C414.971 97.642 416.513 95.7159 417.604 93.1761C418.712 90.6364 419.266 87.517 419.266 83.8182ZM483.211 83.8182C483.211 89.5284 482.129 94.3864 479.964 98.392C477.816 102.398 474.884 105.457 471.168 107.571C467.47 109.668 463.311 110.716 458.691 110.716C454.038 110.716 449.862 109.659 446.163 107.545C442.464 105.432 439.541 102.372 437.393 98.3665C435.245 94.3608 434.171 89.5114 434.171 83.8182C434.171 78.108 435.245 73.25 437.393 69.2443C439.541 65.2386 442.464 62.1875 446.163 60.0909C449.862 57.9773 454.038 56.9205 458.691 56.9205C463.311 56.9205 467.47 57.9773 471.168 60.0909C474.884 62.1875 477.816 65.2386 479.964 69.2443C482.129 73.25 483.211 78.108 483.211 83.8182ZM471.987 83.8182C471.987 80.1193 471.433 77 470.325 74.4602C469.234 71.9205 467.691 69.9943 465.697 68.6818C463.703 67.3693 461.367 66.7131 458.691 66.7131C456.015 66.7131 453.68 67.3693 451.686 68.6818C449.691 69.9943 448.14 71.9205 447.032 74.4602C445.941 77 445.396 80.1193 445.396 83.8182C445.396 87.517 445.941 90.6364 447.032 93.1761C448.14 95.7159 449.691 97.642 451.686 98.9545C453.68 100.267 456.015 100.923 458.691 100.923C461.367 100.923 463.703 100.267 465.697 98.9545C467.691 97.642 469.234 95.7159 470.325 93.1761C471.433 90.6364 471.987 87.517 471.987 83.8182ZM487.812 110V57.6364H498.883V80.7244H499.573L518.417 57.6364H531.687L512.255 81.0824L531.917 110H518.673L504.329 88.4716L498.883 95.1193V110H487.812ZM561.837 72.696C561.633 70.6335 560.755 69.0312 559.204 67.8892C557.652 66.7472 555.547 66.1761 552.888 66.1761C551.081 66.1761 549.556 66.4318 548.312 66.9432C547.067 67.4375 546.113 68.1278 545.448 69.0142C544.8 69.9006 544.476 70.9062 544.476 72.0312C544.442 72.9688 544.638 73.7869 545.064 74.4858C545.508 75.1847 546.113 75.7898 546.88 76.3011C547.647 76.7955 548.533 77.2301 549.539 77.6051C550.544 77.9631 551.618 78.2699 552.76 78.5256L557.465 79.6506C559.749 80.1619 561.846 80.8437 563.755 81.696C565.664 82.5483 567.317 83.5966 568.715 84.8409C570.113 86.0852 571.195 87.5511 571.962 89.2386C572.746 90.9261 573.147 92.8608 573.164 95.0426C573.147 98.2472 572.329 101.026 570.709 103.378C569.107 105.713 566.789 107.528 563.755 108.824C560.738 110.102 557.098 110.741 552.837 110.741C548.61 110.741 544.928 110.094 541.792 108.798C538.672 107.503 536.235 105.585 534.479 103.045C532.74 100.489 531.829 97.3267 531.743 93.5597H542.456C542.576 95.3153 543.079 96.7812 543.965 97.9574C544.868 99.1165 546.07 99.9943 547.57 100.591C549.087 101.17 550.8 101.46 552.709 101.46C554.584 101.46 556.212 101.187 557.593 100.642C558.99 100.097 560.073 99.3381 560.84 98.3665C561.607 97.3949 561.99 96.2784 561.99 95.017C561.99 93.8409 561.641 92.8523 560.942 92.0511C560.26 91.25 559.255 90.5682 557.925 90.0057C556.613 89.4432 555.002 88.9318 553.093 88.4716L547.391 87.0398C542.976 85.9659 539.49 84.2869 536.934 82.0028C534.377 79.7187 533.107 76.642 533.124 72.7727C533.107 69.6023 533.951 66.8324 535.655 64.4631C537.377 62.0938 539.738 60.2443 542.738 58.9148C545.738 57.5852 549.147 56.9205 552.965 56.9205C556.851 56.9205 560.243 57.5852 563.141 58.9148C566.056 60.2443 568.323 62.0938 569.942 64.4631C571.562 66.8324 572.397 69.5767 572.448 72.696H561.837ZM577.011 110V57.6364H588.082V79.2415H610.556V57.6364H621.601V110H610.556V88.3693H588.082V110H577.011ZM627.129 110V57.6364H662.413V66.7642H638.2V79.2415H660.598V88.3693H638.2V100.872H662.516V110H627.129ZM667.615 110V57.6364H678.686V100.872H701.135V110H667.615ZM704.867 110V57.6364H739.537V66.7642H715.938V79.2415H737.236V88.3693H715.938V110H704.867Z" fill="white"/>
<path d="M213.551 110H212.551V111H213.551V110ZM213.551 57.6364V56.6364H212.551V57.6364H213.551ZM244.156 59.3494L243.751 60.2635L243.751 60.2635L244.156 59.3494ZM249.96 64.1051L249.117 64.6434L249.12 64.6466L249.96 64.1051ZM250.676 76.4545L251.559 76.9251L251.561 76.9211L250.676 76.4545ZM247.301 80.2386L247.867 81.063L247.869 81.0615L247.301 80.2386ZM242.443 82.3097L242.224 81.3339L241.443 81.5091V82.3097H242.443ZM242.443 82.821H241.443V83.7792L242.4 83.8201L242.443 82.821ZM248.043 84.5085L247.529 85.3668L247.533 85.3689L248.043 84.5085ZM252.312 88.8807L251.448 89.3836L251.45 89.387L252.312 88.8807ZM251.878 102.969L251.033 102.434L251.032 102.436L251.878 102.969ZM245.818 108.108L245.392 107.203L245.392 107.203L245.818 108.108ZM224.622 100.949H223.622V101.949H224.622V100.949ZM240.398 99.1847L241.037 99.9537L241.042 99.9491L240.398 99.1847ZM241.472 90.5938L240.626 91.1273L240.626 91.1273L241.472 90.5938ZM238.48 87.9858L238.038 88.8826L238.042 88.8849L238.48 87.9858ZM224.622 87.0398V86.0398H223.622V87.0398H224.622ZM224.622 79.5483H223.622V80.5483H224.622V79.5483ZM236.869 78.7557L237.279 79.6679L237.285 79.6652L236.869 78.7557ZM239.682 76.4545L238.865 75.8773L238.859 75.8868L239.682 76.4545ZM238.71 68.3239L238.053 69.0776L238.058 69.0818L238.71 68.3239ZM224.622 66.5852V65.5852H223.622V66.5852H224.622ZM214.551 110V57.6364H212.551V110H214.551ZM213.551 58.6364H234.517V56.6364H213.551V58.6364ZM234.517 58.6364C238.278 58.6364 241.342 59.1949 243.751 60.2635L244.562 58.4354C241.822 57.2199 238.461 56.6364 234.517 56.6364V58.6364ZM243.751 60.2635C246.176 61.3397 247.945 62.807 249.117 64.6434L250.803 63.5669C249.385 61.3464 247.284 59.6432 244.562 58.4354L243.751 60.2635ZM249.12 64.6466C250.301 66.4809 250.903 68.6073 250.903 71.0597H252.903C252.903 68.262 252.21 65.752 250.801 63.5636L249.12 64.6466ZM250.903 71.0597C250.903 72.9696 250.522 74.6029 249.792 75.988L251.561 76.9211C252.466 75.2039 252.903 73.2406 252.903 71.0597H250.903ZM249.794 75.984C249.051 77.3771 248.034 78.5177 246.733 79.4157L247.869 81.0615C249.432 79.9823 250.665 78.6002 251.558 76.9251L249.794 75.984ZM246.735 79.4143C245.434 80.3076 243.935 80.9502 242.224 81.3339L242.662 83.2854C244.599 82.8509 246.338 82.1129 247.867 81.063L246.735 79.4143ZM241.443 82.3097V82.821H243.443V82.3097H241.443ZM242.4 83.8201C244.226 83.8981 245.931 84.411 247.529 85.3668L248.556 83.6503C246.677 82.5265 244.649 81.9144 242.486 81.8219L242.4 83.8201ZM247.533 85.3689C249.133 86.3163 250.437 87.6464 251.448 89.3836L253.177 88.3778C252.006 86.3649 250.464 84.7803 248.552 83.6481L247.533 85.3689ZM251.45 89.387C252.435 91.064 252.949 93.0978 252.949 95.5284H254.949C254.949 92.8113 254.372 90.4133 253.175 88.3744L251.45 89.387ZM252.949 95.5284C252.949 98.1325 252.305 100.424 251.033 102.434L252.723 103.503C254.213 101.149 254.949 98.4811 254.949 95.5284H252.949ZM251.032 102.436C249.785 104.415 247.923 106.01 245.392 107.203L246.245 109.013C249.066 107.683 251.244 105.852 252.724 103.502L251.032 102.436ZM245.392 107.203C242.885 108.385 239.742 109 235.923 109V111C239.945 111 243.399 110.354 246.245 109.013L245.392 107.203ZM235.923 109H213.551V111H235.923V109ZM224.622 101.949H233.648V99.9489H224.622V101.949ZM233.648 101.949C236.821 101.949 239.356 101.351 241.037 99.9536L239.758 98.4157C238.61 99.3705 236.645 99.9489 233.648 99.9489V101.949ZM241.042 99.9491C242.699 98.5516 243.52 96.678 243.52 94.429H241.52C241.52 96.1345 240.926 97.4314 239.753 98.4202L241.042 99.9491ZM243.52 94.429C243.52 92.812 243.127 91.3446 242.317 90.0602L240.626 91.1273C241.213 92.0588 241.52 93.1482 241.52 94.429H243.52ZM242.317 90.0602C241.509 88.7793 240.363 87.7904 238.918 87.0867L238.042 88.8849C239.188 89.4425 240.036 90.1923 240.626 91.1273L242.317 90.0602ZM238.923 87.089C237.477 86.3759 235.793 86.0398 233.903 86.0398V88.0398C235.559 88.0398 236.926 88.3343 238.038 88.8826L238.923 87.089ZM233.903 86.0398H224.622V88.0398H233.903V86.0398ZM223.622 87.0398V100.949H225.622V87.0398H223.622ZM224.622 80.5483H232.83V78.5483H224.622V80.5483ZM232.83 80.5483C234.463 80.5483 235.953 80.2635 237.279 79.6678L236.46 77.8435C235.433 78.3047 234.23 78.5483 232.83 78.5483V80.5483ZM237.285 79.6652C238.627 79.0518 239.711 78.1731 240.505 77.0223L238.859 75.8868C238.289 76.7133 237.498 77.3686 236.454 77.8462L237.285 79.6652ZM240.498 77.0318C241.333 75.8513 241.73 74.4579 241.73 72.9006H239.73C239.73 74.1046 239.428 75.0805 238.865 75.8773L240.498 77.0318ZM241.73 72.9006C241.73 70.7388 240.946 68.9286 239.363 67.566L238.058 69.0818C239.168 70.0373 239.73 71.2782 239.73 72.9006H241.73ZM239.367 67.5701C237.795 66.1996 235.636 65.5852 233.034 65.5852V67.5852C235.341 67.5852 236.966 68.1299 238.053 69.0776L239.367 67.5701ZM233.034 65.5852H224.622V67.5852H233.034V65.5852ZM223.622 66.5852V79.5483H225.622V66.5852H223.622ZM268.624 57.6364H269.624V56.6364H268.624V57.6364ZM268.624 110V111H269.624V110H268.624ZM257.553 110H256.553V111H257.553V110ZM257.553 57.6364V56.6364H256.553V57.6364H257.553ZM267.624 57.6364V110H269.624V57.6364H267.624ZM268.624 109H257.553V111H268.624V109ZM258.553 110V57.6364H256.553V110H258.553ZM257.553 58.6364H268.624V56.6364H257.553V58.6364ZM308.854 74.5625L307.893 74.839L308.101 75.5625H308.854V74.5625ZM307.345 71.2642L306.513 71.8189L306.518 71.8257L307.345 71.2642ZM304.968 68.8097L304.372 69.6132L304.381 69.6194L304.389 69.6254L304.968 68.8097ZM301.797 67.25L301.506 68.2067L301.51 68.2078L301.797 67.25ZM290.828 68.7074L290.28 67.871L290.277 67.8732L290.828 68.7074ZM286.124 74.5114L287.037 74.9186L287.038 74.9164L286.124 74.5114ZM290.803 98.929L290.25 99.7621L290.255 99.7653L290.803 98.929ZM304.405 99.5938L304.852 100.488L304.856 100.486L304.405 99.5938ZM308.496 95.7841L307.632 95.2802L307.628 95.287L308.496 95.7841ZM309.928 89.9801L310.074 88.9908L308.928 88.8215V89.9801H309.928ZM312.178 90.3125V91.3125L312.324 89.3232L312.178 90.3125ZM298.678 90.3125H297.678V91.3125H298.678V90.3125ZM298.678 81.9773V80.9773H297.678V81.9773H298.678ZM320.59 81.9773H321.59V80.9773H320.59V81.9773ZM317.675 100.438L318.536 100.946L318.537 100.944L317.675 100.438ZM309.647 108.057L310.108 108.944L310.111 108.942L309.647 108.057ZM284.999 107.469L284.493 108.331L284.495 108.333L284.999 107.469ZM276.306 98.1875L275.416 98.6437L275.418 98.6483L276.306 98.1875ZM275.053 72.517L274.116 72.168L274.115 72.1707L275.053 72.517ZM280.269 64.0284L280.989 64.7222L280.989 64.7222L280.269 64.0284ZM288.067 58.7358L287.689 57.8099L287.689 57.8099L288.067 58.7358ZM305.99 58.2244L305.668 59.1712L305.674 59.1731L305.99 58.2244ZM312.791 61.8551L312.17 62.6386L312.173 62.6412L312.791 61.8551ZM317.675 67.4545L316.811 67.958L316.813 67.961L317.675 67.4545ZM320.104 74.5625V75.5625H321.252L321.095 74.4256L320.104 74.5625ZM309.815 74.286C309.431 72.9525 308.887 71.7546 308.173 70.7027L306.518 71.8257C307.1 72.6829 307.561 73.6838 307.893 74.839L309.815 74.286ZM308.178 70.7095C307.463 69.6378 306.585 68.7306 305.546 67.9939L304.389 69.6254C305.225 70.2183 305.932 70.9474 306.513 71.8189L308.178 70.7095ZM305.563 68.0061C304.542 67.2497 303.379 66.6805 302.085 66.2922L301.51 68.2078C302.602 68.5355 303.553 69.006 304.372 69.6132L305.563 68.0061ZM302.088 66.2933C300.804 65.9024 299.4 65.7131 297.885 65.7131V67.7131C299.234 67.7131 300.438 67.8817 301.506 68.2067L302.088 66.2933ZM297.885 65.7131C295.035 65.7131 292.488 66.4238 290.28 67.871L291.377 69.5437C293.225 68.3319 295.383 67.7131 297.885 67.7131V65.7131ZM290.277 67.8732C288.083 69.3234 286.4 71.419 285.21 74.1064L287.038 74.9164C288.098 72.5242 289.551 70.7504 291.38 69.5416L290.277 67.8732ZM285.211 74.1041C284.013 76.789 283.436 80.0218 283.436 83.767H285.436C285.436 80.2168 285.985 77.2791 287.037 74.9186L285.211 74.1041ZM283.436 83.767C283.436 87.5112 284.004 90.7568 285.181 93.4715L287.016 92.6763C285.976 90.2773 285.436 87.3183 285.436 83.767H283.436ZM285.181 93.4715C286.354 96.1793 288.038 98.2938 290.25 99.7621L291.356 98.0959C289.511 96.871 288.058 95.082 287.016 92.6763L285.181 93.4715ZM290.255 99.7653C292.468 101.216 295.059 101.923 297.987 101.923V99.9233C295.393 99.9233 293.195 99.3011 291.351 98.0926L290.255 99.7653ZM297.987 101.923C300.608 101.923 302.909 101.46 304.852 100.488L303.958 98.6993C302.356 99.5004 300.378 99.9233 297.987 99.9233V101.923ZM304.856 100.486C306.809 99.5007 308.323 98.0983 309.364 96.2812L307.628 95.287C306.794 96.7426 305.581 97.88 303.955 98.701L304.856 100.486ZM309.36 96.288C310.418 94.4733 310.928 92.3582 310.928 89.9801H308.928C308.928 92.0679 308.483 93.8222 307.632 95.2802L309.36 96.288ZM309.782 90.9694L312.032 91.3018L312.324 89.3232L310.074 88.9908L309.782 90.9694ZM312.178 89.3125H298.678V91.3125H312.178V89.3125ZM299.678 90.3125V81.9773H297.678V90.3125H299.678ZM298.678 82.9773H320.59V80.9773H298.678V82.9773ZM319.59 81.9773V88.5739H321.59V81.9773H319.59ZM319.59 88.5739C319.59 93.0337 318.649 96.8057 316.813 99.9309L318.537 100.944C320.587 97.4556 321.59 93.3186 321.59 88.5739H319.59ZM316.814 99.9289C314.966 103.057 312.428 105.467 309.182 107.171L310.111 108.942C313.684 107.067 316.498 104.397 318.536 100.946L316.814 99.9289ZM309.185 107.17C305.938 108.858 302.197 109.716 297.936 109.716V111.716C302.471 111.716 306.537 110.801 310.108 108.944L309.185 107.17ZM297.936 109.716C293.179 109.716 289.045 108.668 285.502 106.605L284.495 108.333C288.385 110.599 292.876 111.716 297.936 111.716V109.716ZM285.505 106.606C281.96 104.525 279.19 101.574 277.193 97.7267L275.418 98.6483C277.58 102.813 280.606 106.049 284.493 108.331L285.505 106.606ZM277.196 97.7313C275.22 93.8776 274.212 89.2681 274.212 83.8693H272.212C272.212 89.516 273.267 94.4519 275.416 98.6437L277.196 97.7313ZM274.212 83.8693C274.212 79.7204 274.812 76.0569 275.991 72.8634L274.115 72.1707C272.839 75.6249 272.212 79.5296 272.212 83.8693H274.212ZM275.99 72.8661C277.192 69.6398 278.861 66.9314 280.989 64.7222L279.549 63.3347C277.211 65.7618 275.403 68.7124 274.116 72.168L275.99 72.8661ZM280.989 64.7222C283.126 62.5039 285.609 60.819 288.445 59.6617L287.689 57.8099C284.594 59.0731 281.878 60.9166 279.549 63.3347L280.989 64.7222ZM288.445 59.6617C291.281 58.5042 294.365 57.9205 297.706 57.9205V55.9205C294.127 55.9205 290.784 56.5469 287.689 57.8099L288.445 59.6617ZM297.706 57.9205C300.573 57.9205 303.225 58.3404 305.668 59.1712L306.312 57.2777C303.642 56.3698 300.771 55.9205 297.706 55.9205V57.9205ZM305.674 59.1731C308.128 59.991 310.29 61.1476 312.17 62.6386L313.413 61.0716C311.338 59.4262 308.966 58.1624 306.307 57.2757L305.674 59.1731ZM312.173 62.6412C314.07 64.1325 315.614 65.9035 316.811 67.958L318.539 66.9511C317.213 64.6761 315.502 62.7141 313.41 61.069L312.173 62.6412ZM316.813 67.961C318.004 69.9895 318.773 72.2322 319.113 74.6994L321.095 74.4256C320.72 71.7109 319.869 69.215 318.537 66.9481L316.813 67.961ZM320.104 73.5625H308.854V75.5625H320.104V73.5625ZM338.37 110H337.37V111H338.37V110ZM338.37 57.6364V56.6364H337.37V57.6364H338.37ZM368.975 59.3494L368.569 60.2635L368.569 60.2635L368.975 59.3494ZM374.779 64.1051L373.936 64.6434L373.938 64.6466L374.779 64.1051ZM375.495 76.4545L376.377 76.9251L376.379 76.9211L375.495 76.4545ZM372.12 80.2386L372.686 81.063L372.688 81.0615L372.12 80.2386ZM367.262 82.3097L367.043 81.3339L366.262 81.5091V82.3097H367.262ZM367.262 82.821H366.262V83.7792L367.219 83.8201L367.262 82.821ZM372.861 84.5085L372.348 85.3668L372.352 85.3689L372.861 84.5085ZM377.131 88.8807L376.267 89.3836L376.269 89.387L377.131 88.8807ZM376.697 102.969L375.852 102.434L375.85 102.436L376.697 102.969ZM370.637 108.108L370.211 107.203L370.211 107.203L370.637 108.108ZM349.441 100.949H348.441V101.949H349.441V100.949ZM365.216 99.1847L365.856 99.9537L365.861 99.9491L365.216 99.1847ZM366.29 90.5938L365.445 91.1273L365.445 91.1273L366.29 90.5938ZM363.299 87.9858L362.856 88.8826L362.861 88.8849L363.299 87.9858ZM349.441 87.0398V86.0398H348.441V87.0398H349.441ZM349.441 79.5483H348.441V80.5483H349.441V79.5483ZM361.688 78.7557L362.098 79.6679L362.104 79.6652L361.688 78.7557ZM364.501 76.4545L363.684 75.8773L363.677 75.8868L364.501 76.4545ZM363.529 68.3239L362.872 69.0776L362.877 69.0818L363.529 68.3239ZM349.441 66.5852V65.5852H348.441V66.5852H349.441ZM339.37 110V57.6364H337.37V110H339.37ZM338.37 58.6364H359.336V56.6364H338.37V58.6364ZM359.336 58.6364C363.097 58.6364 366.161 59.1949 368.569 60.2635L369.381 58.4354C366.641 57.2199 363.279 56.6364 359.336 56.6364V58.6364ZM368.569 60.2635C370.995 61.3397 372.763 62.807 373.936 64.6434L375.622 63.5669C374.204 61.3464 372.103 59.6432 369.381 58.4354L368.569 60.2635ZM373.938 64.6466C375.12 66.4809 375.722 68.6073 375.722 71.0597H377.722C377.722 68.262 377.029 65.752 375.62 63.5636L373.938 64.6466ZM375.722 71.0597C375.722 72.9696 375.341 74.6029 374.61 75.988L376.379 76.9211C377.285 75.2039 377.722 73.2406 377.722 71.0597H375.722ZM374.613 75.984C373.87 77.3771 372.852 78.5177 371.552 79.4157L372.688 81.0615C374.251 79.9823 375.484 78.6002 376.377 76.9251L374.613 75.984ZM371.554 79.4143C370.253 80.3076 368.754 80.9502 367.043 81.3339L367.481 83.2854C369.418 82.8509 371.157 82.1129 372.686 81.063L371.554 79.4143ZM366.262 82.3097V82.821H368.262V82.3097H366.262ZM367.219 83.8201C369.045 83.8981 370.75 84.411 372.348 85.3668L373.375 83.6503C371.495 82.5265 369.468 81.9144 367.305 81.8219L367.219 83.8201ZM372.352 85.3689C373.951 86.3163 375.256 87.6464 376.267 89.3836L377.996 88.3778C376.824 86.3649 375.283 84.7803 373.371 83.6481L372.352 85.3689ZM376.269 89.387C377.254 91.064 377.768 93.0978 377.768 95.5284H379.768C379.768 92.8113 379.191 90.4133 377.994 88.3744L376.269 89.387ZM377.768 95.5284C377.768 98.1325 377.123 100.424 375.852 102.434L377.542 103.503C379.031 101.149 379.768 98.4811 379.768 95.5284H377.768ZM375.85 102.436C374.604 104.415 372.742 106.01 370.211 107.203L371.063 109.013C373.884 107.683 376.062 105.852 377.543 103.502L375.85 102.436ZM370.211 107.203C367.704 108.385 364.561 109 360.742 109V111C364.764 111 368.218 110.354 371.063 109.013L370.211 107.203ZM360.742 109H338.37V111H360.742V109ZM349.441 101.949H358.466V99.9489H349.441V101.949ZM358.466 101.949C361.64 101.949 364.175 101.351 365.856 99.9536L364.577 98.4157C363.429 99.3705 361.463 99.9489 358.466 99.9489V101.949ZM365.861 99.9491C367.518 98.5516 368.339 96.678 368.339 94.429H366.339C366.339 96.1345 365.744 97.4314 364.572 98.4202L365.861 99.9491ZM368.339 94.429C368.339 92.812 367.946 91.3446 367.136 90.0602L365.445 91.1273C366.032 92.0588 366.339 93.1482 366.339 94.429H368.339ZM367.136 90.0602C366.328 88.7793 365.182 87.7904 363.737 87.0867L362.861 88.8849C364.006 89.4425 364.855 90.1923 365.445 91.1273L367.136 90.0602ZM363.741 87.089C362.296 86.3759 360.612 86.0398 358.722 86.0398V88.0398C360.378 88.0398 361.745 88.3343 362.856 88.8826L363.741 87.089ZM358.722 86.0398H349.441V88.0398H358.722V86.0398ZM348.441 87.0398V100.949H350.441V87.0398H348.441ZM349.441 80.5483H357.648V78.5483H349.441V80.5483ZM357.648 80.5483C359.282 80.5483 360.772 80.2635 362.098 79.6678L361.278 77.8435C360.252 78.3047 359.049 78.5483 357.648 78.5483V80.5483ZM362.104 79.6652C363.446 79.0518 364.53 78.1731 365.324 77.0223L363.677 75.8868C363.107 76.7133 362.317 77.3686 361.272 77.8462L362.104 79.6652ZM365.317 77.0318C366.152 75.8513 366.549 74.4579 366.549 72.9006H364.549C364.549 74.1046 364.247 75.0805 363.684 75.8773L365.317 77.0318ZM366.549 72.9006C366.549 70.7388 365.764 68.9286 364.181 67.566L362.877 69.0818C363.987 70.0373 364.549 71.2782 364.549 72.9006H366.549ZM364.186 67.5701C362.614 66.1996 360.455 65.5852 357.853 65.5852V67.5852C360.16 67.5852 361.785 68.1299 362.872 69.0776L364.186 67.5701ZM357.853 65.5852H349.441V67.5852H357.853V65.5852ZM348.441 66.5852V79.5483H350.441V66.5852H348.441ZM427.244 98.392L426.364 97.9166L426.362 97.9195L427.244 98.392ZM418.448 107.571L418.941 108.441L418.943 108.44L418.448 107.571ZM393.442 107.545L393.939 106.677L393.442 107.545ZM384.673 98.3665L383.791 98.839L383.791 98.839L384.673 98.3665ZM384.673 69.2443L385.554 69.7169L385.554 69.7169L384.673 69.2443ZM393.442 60.0909L393.936 60.9609L393.939 60.9592L393.442 60.0909ZM418.448 60.0909L417.952 60.9592L417.957 60.9618L418.448 60.0909ZM427.244 69.2443L426.362 69.7169L426.364 69.7198L427.244 69.2443ZM417.604 74.4602L416.686 74.8549L416.688 74.8601L417.604 74.4602ZM412.977 68.6818L412.427 69.5171L412.427 69.5171L412.977 68.6818ZM398.965 68.6818L399.515 69.5171L399.515 69.5171L398.965 68.6818ZM394.312 74.4602L393.395 74.0604L393.393 74.0656L394.312 74.4602ZM394.312 93.1761L393.393 93.5708L393.395 93.576L394.312 93.1761ZM398.965 98.9545L399.515 98.1192L399.515 98.1192L398.965 98.9545ZM412.977 98.9545L412.427 98.1192L412.427 98.1192L412.977 98.9545ZM417.604 93.1761L416.688 92.7763L416.686 92.7815L417.604 93.1761ZM429.491 83.8182C429.491 89.4038 428.432 94.0895 426.364 97.9166L428.123 98.8675C430.385 94.6832 431.491 89.653 431.491 83.8182H429.491ZM426.362 97.9195C424.298 101.77 421.495 104.687 417.954 106.702L418.943 108.44C422.833 106.227 425.894 103.025 428.125 98.8646L426.362 97.9195ZM417.955 106.701C414.419 108.705 410.433 109.716 405.971 109.716V111.716C410.748 111.716 415.079 110.63 418.941 108.441L417.955 106.701ZM405.971 109.716C401.475 109.716 397.473 108.697 393.939 106.677L392.946 108.414C396.81 110.622 401.16 111.716 405.971 111.716V109.716ZM393.939 106.677C390.414 104.663 387.619 101.746 385.554 97.8939L383.791 98.839C386.022 102.999 389.073 106.201 392.946 108.414L393.939 106.677ZM385.554 97.8939C383.501 94.0658 382.451 89.3873 382.451 83.8182H380.451C380.451 89.6354 381.548 94.6558 383.791 98.839L385.554 97.8939ZM382.451 83.8182C382.451 78.2314 383.502 73.5446 385.554 69.7169L383.791 68.7718C381.548 72.9554 380.451 77.9845 380.451 83.8182H382.451ZM385.554 69.7169C387.619 65.8657 390.413 62.9578 393.936 60.9609L392.949 59.2209C389.075 61.4172 386.022 64.6116 383.791 68.7718L385.554 69.7169ZM393.939 60.9592C397.473 58.9397 401.475 57.9205 405.971 57.9205V55.9205C401.16 55.9205 396.81 57.0148 392.946 59.2227L393.939 60.9592ZM405.971 57.9205C410.431 57.9205 414.417 58.9391 417.952 60.9592L418.944 59.2227C415.082 57.0155 410.749 55.9205 405.971 55.9205V57.9205ZM417.957 60.9618C421.497 62.9591 424.298 65.8668 426.362 69.7169L428.125 68.7718C425.894 64.6104 422.831 61.4159 418.94 59.22L417.957 60.9618ZM426.364 69.7198C428.432 73.5469 429.491 78.2326 429.491 83.8182H431.491C431.491 77.9834 430.385 72.9531 428.123 68.7689L426.364 69.7198ZM420.266 83.8182C420.266 80.0254 419.699 76.7609 418.521 74.0604L416.688 74.8601C417.726 77.2391 418.266 80.2133 418.266 83.8182H420.266ZM418.523 74.0656C417.368 71.375 415.709 69.2828 413.526 67.8465L412.427 69.5171C414.233 70.7059 415.659 72.4659 416.686 74.8549L418.523 74.0656ZM413.526 67.8465C411.349 66.4139 408.818 65.7131 405.971 65.7131V67.7131C408.476 67.7131 410.615 68.3248 412.427 69.5171L413.526 67.8465ZM405.971 65.7131C403.124 65.7131 400.592 66.4139 398.415 67.8465L399.515 69.5171C401.327 68.3248 403.466 67.7131 405.971 67.7131V65.7131ZM398.415 67.8465C396.235 69.2818 394.568 71.3721 393.395 74.0604L395.228 74.8601C396.272 72.4688 397.707 70.7069 399.515 69.5171L398.415 67.8465ZM393.393 74.0656C392.234 76.7645 391.675 80.027 391.675 83.8182H393.675C393.675 80.2116 394.208 77.2355 395.231 74.8549L393.393 74.0656ZM391.675 83.8182C391.675 87.6093 392.234 90.8718 393.393 93.5708L395.231 92.7815C394.208 90.4009 393.675 87.4247 393.675 83.8182H391.675ZM393.395 93.576C394.568 96.2642 396.235 98.3546 398.415 99.7899L399.515 98.1192C397.707 96.9295 396.272 95.1676 395.228 92.7763L393.395 93.576ZM398.415 99.7899C400.592 101.222 403.124 101.923 405.971 101.923V99.9233C403.466 99.9233 401.327 99.3116 399.515 98.1192L398.415 99.7899ZM405.971 101.923C408.818 101.923 411.349 101.222 413.526 99.7899L412.427 98.1192C410.615 99.3116 408.476 99.9233 405.971 99.9233V101.923ZM413.526 99.7899C415.709 98.3536 417.368 96.2613 418.523 93.5708L416.686 92.7815C415.659 95.1705 414.233 96.9305 412.427 98.1192L413.526 99.7899ZM418.521 93.576C419.699 90.8754 420.266 87.611 420.266 83.8182H418.266C418.266 87.4231 417.726 90.3973 416.688 92.7763L418.521 93.576ZM479.964 98.392L479.084 97.9166L479.083 97.9195L479.964 98.392ZM471.168 107.571L471.662 108.441L471.663 108.44L471.168 107.571ZM446.163 107.545L446.659 106.677L446.163 107.545ZM437.393 98.3665L436.512 98.839L436.512 98.839L437.393 98.3665ZM437.393 69.2443L438.274 69.7169L438.274 69.7169L437.393 69.2443ZM446.163 60.0909L446.656 60.9609L446.659 60.9592L446.163 60.0909ZM471.168 60.0909L470.672 60.9592L470.677 60.9618L471.168 60.0909ZM479.964 69.2443L479.083 69.7169L479.084 69.7198L479.964 69.2443ZM470.325 74.4602L469.406 74.8549L469.408 74.8601L470.325 74.4602ZM465.697 68.6818L465.147 69.5171L465.147 69.5171L465.697 68.6818ZM451.686 68.6818L452.235 69.5171L452.235 69.5171L451.686 68.6818ZM447.032 74.4602L446.116 74.0604L446.113 74.0656L447.032 74.4602ZM447.032 93.1761L446.113 93.5708L446.116 93.576L447.032 93.1761ZM451.686 98.9545L452.235 98.1192L452.235 98.1192L451.686 98.9545ZM465.697 98.9545L465.147 98.1192L465.147 98.1192L465.697 98.9545ZM470.325 93.1761L469.408 92.7763L469.406 92.7815L470.325 93.1761ZM482.211 83.8182C482.211 89.4038 481.152 94.0895 479.084 97.9166L480.844 98.8675C483.105 94.6832 484.211 89.653 484.211 83.8182H482.211ZM479.083 97.9195C477.018 101.77 474.216 104.687 470.674 106.702L471.663 108.44C475.553 106.227 478.614 103.025 480.845 98.8646L479.083 97.9195ZM470.675 106.701C467.14 108.705 463.153 109.716 458.691 109.716V111.716C463.468 111.716 467.8 110.63 471.662 108.441L470.675 106.701ZM458.691 109.716C454.195 109.716 450.193 108.697 446.659 106.677L445.667 108.414C449.53 110.622 453.88 111.716 458.691 111.716V109.716ZM446.659 106.677C443.134 104.663 440.339 101.746 438.274 97.8939L436.512 98.839C438.742 102.999 441.794 106.201 445.667 108.414L446.659 106.677ZM438.274 97.8939C436.222 94.0658 435.171 89.3873 435.171 83.8182H433.171C433.171 89.6354 434.269 94.6558 436.512 98.839L438.274 97.8939ZM435.171 83.8182C435.171 78.2314 436.222 73.5446 438.274 69.7169L436.512 68.7718C434.268 72.9554 433.171 77.9845 433.171 83.8182H435.171ZM438.274 69.7169C440.339 65.8657 443.133 62.9578 446.656 60.9609L445.67 59.2209C441.795 61.4172 438.742 64.6116 436.512 68.7718L438.274 69.7169ZM446.659 60.9592C450.193 58.9397 454.195 57.9205 458.691 57.9205V55.9205C453.88 55.9205 449.53 57.0148 445.667 59.2227L446.659 60.9592ZM458.691 57.9205C463.152 57.9205 467.137 58.9391 470.672 60.9592L471.665 59.2227C467.802 57.0155 463.469 55.9205 458.691 55.9205V57.9205ZM470.677 60.9618C474.217 62.9591 477.018 65.8668 479.083 69.7169L480.845 68.7718C478.614 64.6104 475.552 61.4159 471.66 59.22L470.677 60.9618ZM479.084 69.7198C481.152 73.5469 482.211 78.2326 482.211 83.8182H484.211C484.211 77.9834 483.105 72.9531 480.844 68.7689L479.084 69.7198ZM472.987 83.8182C472.987 80.0254 472.419 76.7609 471.241 74.0604L469.408 74.8601C470.446 77.2391 470.987 80.2133 470.987 83.8182H472.987ZM471.244 74.0656C470.088 71.375 468.429 69.2828 466.247 67.8465L465.147 69.5171C466.953 70.7059 468.38 72.4659 469.406 74.8549L471.244 74.0656ZM466.247 67.8465C464.07 66.4139 461.538 65.7131 458.691 65.7131V67.7131C461.196 67.7131 463.335 68.3248 465.147 69.5171L466.247 67.8465ZM458.691 65.7131C455.844 65.7131 453.313 66.4139 451.136 67.8465L452.235 69.5171C454.047 68.3248 456.186 67.7131 458.691 67.7131V65.7131ZM451.136 67.8465C448.955 69.2818 447.288 71.3721 446.116 74.0604L447.949 74.8601C448.992 72.4688 450.428 70.7069 452.235 69.5171L451.136 67.8465ZM446.113 74.0656C444.954 76.7645 444.396 80.027 444.396 83.8182H446.396C446.396 80.2116 446.928 77.2355 447.951 74.8549L446.113 74.0656ZM444.396 83.8182C444.396 87.6093 444.954 90.8718 446.113 93.5708L447.951 92.7815C446.928 90.4009 446.396 87.4247 446.396 83.8182H444.396ZM446.116 93.576C447.288 96.2642 448.955 98.3546 451.136 99.7899L452.235 98.1192C450.428 96.9295 448.992 95.1676 447.949 92.7763L446.116 93.576ZM451.136 99.7899C453.313 101.222 455.844 101.923 458.691 101.923V99.9233C456.186 99.9233 454.047 99.3116 452.235 98.1192L451.136 99.7899ZM458.691 101.923C461.538 101.923 464.07 101.222 466.247 99.7899L465.147 98.1192C463.335 99.3116 461.196 99.9233 458.691 99.9233V101.923ZM466.247 99.7899C468.429 98.3536 470.088 96.2613 471.244 93.5708L469.406 92.7815C468.38 95.1705 466.953 96.9305 465.147 98.1192L466.247 99.7899ZM471.241 93.576C472.419 90.8754 472.987 87.611 472.987 83.8182H470.987C470.987 87.4231 470.446 90.3973 469.408 92.7763L471.241 93.576ZM487.812 110H486.812V111H487.812V110ZM487.812 57.6364V56.6364H486.812V57.6364H487.812ZM498.883 57.6364H499.883V56.6364H498.883V57.6364ZM498.883 80.7244H497.883V81.7244H498.883V80.7244ZM499.573 80.7244V81.7244H500.048L500.348 81.3567L499.573 80.7244ZM518.417 57.6364V56.6364H517.943L517.642 57.0041L518.417 57.6364ZM531.687 57.6364L532.457 58.2745L533.815 56.6364H531.687V57.6364ZM512.255 81.0824L511.485 80.4443L511.006 81.023L511.428 81.6447L512.255 81.0824ZM531.917 110V111H533.806L532.744 109.438L531.917 110ZM518.673 110L517.841 110.554L518.137 111H518.673V110ZM504.329 88.4716L505.161 87.9171L504.412 86.7925L503.556 87.8379L504.329 88.4716ZM498.883 95.1193L498.11 94.4856L497.883 94.762V95.1193H498.883ZM498.883 110V111H499.883V110H498.883ZM488.812 110V57.6364H486.812V110H488.812ZM487.812 58.6364H498.883V56.6364H487.812V58.6364ZM497.883 57.6364V80.7244H499.883V57.6364H497.883ZM498.883 81.7244H499.573V79.7244H498.883V81.7244ZM500.348 81.3567L519.192 58.2687L517.642 57.0041L498.799 80.0921L500.348 81.3567ZM518.417 58.6364H531.687V56.6364H518.417V58.6364ZM530.917 56.9982L511.485 80.4443L513.025 81.7205L532.457 58.2745L530.917 56.9982ZM511.428 81.6447L531.09 110.562L532.744 109.438L513.082 80.5201L511.428 81.6447ZM531.917 109H518.673V111H531.917V109ZM519.505 109.446L505.161 87.9171L503.497 89.0261L517.841 110.554L519.505 109.446ZM503.556 87.8379L498.11 94.4856L499.657 95.753L505.103 89.1053L503.556 87.8379ZM497.883 95.1193V110H499.883V95.1193H497.883ZM498.883 109H487.812V111H498.883V109ZM561.837 72.696L560.842 72.7947L560.931 73.696H561.837V72.696ZM548.312 66.9432L548.681 67.8726L548.692 67.8681L548.312 66.9432ZM545.448 69.0142L544.648 68.4142L544.64 68.4242L545.448 69.0142ZM544.476 72.0312L545.476 72.0676L545.476 72.0494V72.0312H544.476ZM545.064 74.4858L544.211 75.0064L544.215 75.0139L544.22 75.0213L545.064 74.4858ZM546.88 76.3011L546.325 77.1332L546.331 77.1375L546.338 77.1417L546.88 76.3011ZM549.539 77.6051L549.189 78.5421L549.196 78.5447L549.203 78.5472L549.539 77.6051ZM552.76 78.5256L552.993 77.553L552.986 77.5513L552.979 77.5497L552.76 78.5256ZM557.465 79.6506L557.232 80.6231L557.239 80.6248L557.246 80.6264L557.465 79.6506ZM563.755 81.696L563.347 82.6092L563.347 82.6092L563.755 81.696ZM568.715 84.8409L569.38 84.094L569.38 84.094L568.715 84.8409ZM571.962 89.2386L571.052 89.6525L571.055 89.66L571.962 89.2386ZM573.164 95.0426L574.164 95.0479L574.164 95.0348L573.164 95.0426ZM570.709 103.378L569.886 102.811L569.885 102.812L570.709 103.378ZM563.755 108.824L564.145 109.745L564.147 109.744L563.755 108.824ZM541.792 108.798L541.408 109.722L541.41 109.723L541.792 108.798ZM534.479 103.045L533.652 103.608L533.657 103.614L534.479 103.045ZM531.743 93.5597V92.5597H530.72L530.744 93.5823L531.743 93.5597ZM542.456 93.5597L543.454 93.4919L543.391 92.5597H542.456V93.5597ZM543.965 97.9574L543.166 98.5592L543.171 98.5657L543.176 98.5721L543.965 97.9574ZM547.57 100.591L547.2 101.52L547.213 101.525L547.57 100.591ZM557.593 100.642L557.229 99.7105L557.225 99.712L557.593 100.642ZM560.84 98.3665L561.625 98.9861L561.625 98.9861L560.84 98.3665ZM560.942 92.0511L560.181 92.6993L560.189 92.7085L560.942 92.0511ZM557.925 90.0057L557.531 90.9248L557.536 90.9266L557.925 90.0057ZM553.093 88.4716L552.849 89.4415L552.858 89.4437L553.093 88.4716ZM547.391 87.0398L547.635 86.0699L547.627 86.0681L547.391 87.0398ZM536.934 82.0028L536.267 82.7486L536.267 82.7486L536.934 82.0028ZM533.124 72.7727L534.124 72.7771L534.124 72.7673L533.124 72.7727ZM535.655 64.4631L534.846 63.8752L534.844 63.8791L535.655 64.4631ZM563.141 58.9148L562.724 59.8237L562.726 59.8246L563.141 58.9148ZM569.942 64.4631L569.117 65.0273L569.117 65.0273L569.942 64.4631ZM572.448 72.696V73.696H573.464L573.448 72.6796L572.448 72.696ZM562.832 72.5973C562.602 70.2771 561.594 68.4077 559.796 67.0839L558.611 68.6945C559.915 69.6548 560.663 70.99 560.842 72.7947L562.832 72.5973ZM559.796 67.0839C558.019 65.7753 555.681 65.1761 552.888 65.1761V67.1761C555.413 67.1761 557.286 67.7191 558.611 68.6945L559.796 67.0839ZM552.888 65.1761C550.993 65.1761 549.33 65.4435 547.931 66.0182L548.692 67.8681C549.782 67.4202 551.17 67.1761 552.888 67.1761V65.1761ZM547.942 66.0138C546.563 66.5619 545.444 67.3524 544.648 68.4142L546.248 69.6142C546.781 68.9033 547.572 68.3131 548.681 67.8725L547.942 66.0138ZM544.64 68.4242C543.864 69.4863 543.476 70.6998 543.476 72.0312H545.476C545.476 71.1127 545.736 70.3148 546.255 69.6042L544.64 68.4242ZM543.477 71.9949C543.437 73.0989 543.668 74.1167 544.211 75.0064L545.918 73.9652C545.608 73.4572 545.448 72.8386 545.476 72.0676L543.477 71.9949ZM544.22 75.0213C544.746 75.851 545.455 76.5532 546.325 77.1332L547.434 75.4691C546.77 75.0264 546.269 74.5183 545.909 73.9503L544.22 75.0213ZM546.338 77.1417C547.175 77.6811 548.128 78.1462 549.189 78.5421L549.888 76.6681C548.938 76.314 548.119 75.9098 547.421 75.4606L546.338 77.1417ZM549.203 78.5472C550.251 78.92 551.364 79.2377 552.542 79.5014L552.979 77.5497C551.873 77.3021 550.838 77.0061 549.874 76.663L549.203 78.5472ZM552.528 79.4981L557.232 80.6231L557.698 78.678L552.993 77.553L552.528 79.4981ZM557.246 80.6264C559.473 81.1249 561.505 81.787 563.347 82.6092L564.162 80.7829C562.186 79.9005 560.025 79.1989 557.683 78.6747L557.246 80.6264ZM563.347 82.6092C565.173 83.4244 566.737 84.4193 568.05 85.5878L569.38 84.094C567.897 82.7739 566.154 81.6722 564.162 80.7829L563.347 82.6092ZM568.05 85.5878C569.345 86.7403 570.343 88.0931 571.052 89.6524L572.872 88.8248C572.047 87.0092 570.881 85.4301 569.38 84.094L568.05 85.5878ZM571.055 89.66C571.77 91.1974 572.148 92.9871 572.164 95.0504L574.164 95.0348C574.146 92.7345 573.723 90.6548 572.869 88.8173L571.055 89.66ZM572.164 95.0373C572.148 98.0666 571.377 100.644 569.886 102.811L571.533 103.945C573.28 101.408 574.146 98.4277 574.164 95.0479L572.164 95.0373ZM569.885 102.812C568.407 104.966 566.251 106.671 563.362 107.904L564.147 109.744C567.327 108.386 569.807 106.46 571.534 103.944L569.885 102.812ZM563.365 107.903C560.502 109.116 557.003 109.741 552.837 109.741V111.741C557.194 111.741 560.973 111.088 564.145 109.745L563.365 107.903ZM552.837 109.741C548.71 109.741 545.163 109.109 542.173 107.874L541.41 109.723C544.693 111.079 548.51 111.741 552.837 111.741V109.741ZM542.175 107.875C539.216 106.646 536.938 104.844 535.302 102.477L533.657 103.614C535.532 106.327 538.129 108.36 541.408 109.722L542.175 107.875ZM535.306 102.483C533.697 100.118 532.825 97.1537 532.743 93.537L530.744 93.5823C530.832 97.4997 531.783 100.86 533.652 103.608L535.306 102.483ZM531.743 94.5597H542.456V92.5597H531.743V94.5597ZM541.459 93.6275C541.589 95.5385 542.142 97.2002 543.166 98.5592L544.764 97.3555C544.015 96.3623 543.563 95.0922 543.454 93.4919L541.459 93.6275ZM543.176 98.5721C544.199 99.885 545.552 100.864 547.2 101.52L547.94 99.6617C546.588 99.1242 545.537 98.348 544.754 97.3426L543.176 98.5721ZM547.213 101.525C548.862 102.155 550.699 102.46 552.709 102.46V100.46C550.901 100.46 549.312 100.186 547.927 99.6568L547.213 101.525ZM552.709 102.46C554.678 102.46 556.436 102.174 557.96 101.572L557.225 99.712C555.988 100.201 554.49 100.46 552.709 100.46V102.46ZM557.956 101.574C559.485 100.977 560.726 100.124 561.625 98.9861L560.055 97.7468C559.419 98.552 558.496 99.216 557.229 99.7105L557.956 101.574ZM561.625 98.9861C562.534 97.8344 562.99 96.4986 562.99 95.017H560.99C560.99 96.0582 560.68 96.9553 560.055 97.7468L561.625 98.9861ZM562.99 95.017C562.99 93.6268 562.571 92.3968 561.696 91.3938L560.189 92.7085C560.711 93.3077 560.99 94.055 560.99 95.017H562.99ZM561.704 91.403C560.89 90.4474 559.737 89.6865 558.315 89.0847L557.536 90.9266C558.772 91.4498 559.63 92.0526 560.181 92.6993L561.704 91.403ZM558.319 89.0865C556.94 88.4954 555.272 87.9683 553.327 87.4994L552.858 89.4437C554.732 89.8953 556.285 90.3909 557.531 90.9248L558.319 89.0865ZM553.336 87.5017L547.635 86.0699L547.148 88.0097L552.849 89.4415L553.336 87.5017ZM547.627 86.0681C543.322 85.0209 540.001 83.4019 537.6 81.2571L536.267 82.7486C538.98 85.172 542.63 86.9109 547.155 88.0114L547.627 86.0681ZM537.6 81.2571C535.285 79.1894 534.108 76.4011 534.124 72.7771L532.124 72.7683C532.106 76.883 533.468 80.2481 536.267 82.7486L537.6 81.2571ZM534.124 72.7673C534.108 69.7891 534.897 67.2298 536.467 65.0471L534.844 63.8791C533.005 66.435 532.106 69.4155 532.124 72.7781L534.124 72.7673ZM536.464 65.0509C538.07 62.8406 540.284 61.096 543.143 59.829L542.332 58.0005C539.191 59.3926 536.683 61.3469 534.846 63.8752L536.464 65.0509ZM543.143 59.829C545.996 58.5645 549.264 57.9205 552.965 57.9205V55.9205C549.03 55.9205 545.479 56.6059 542.332 58.0005L543.143 59.829ZM552.965 57.9205C556.738 57.9205 559.983 58.5658 562.724 59.8237L563.558 58.0059C560.504 56.6046 556.964 55.9205 552.965 55.9205V57.9205ZM562.726 59.8246C565.495 61.0875 567.612 62.8255 569.117 65.0273L570.768 63.8988C569.034 61.362 566.617 59.4011 563.556 58.005L562.726 59.8246ZM569.117 65.0273C570.616 67.2209 571.4 69.771 571.448 72.7124L573.448 72.6796C573.394 69.3824 572.507 66.4438 570.768 63.8988L569.117 65.0273ZM572.448 71.696H561.837V73.696H572.448V71.696ZM577.011 110H576.011V111H577.011V110ZM577.011 57.6364V56.6364H576.011V57.6364H577.011ZM588.082 57.6364H589.082V56.6364H588.082V57.6364ZM588.082 79.2415H587.082V80.2415H588.082V79.2415ZM610.556 79.2415V80.2415H611.556V79.2415H610.556ZM610.556 57.6364V56.6364H609.556V57.6364H610.556ZM621.601 57.6364H622.601V56.6364H621.601V57.6364ZM621.601 110V111H622.601V110H621.601ZM610.556 110H609.556V111H610.556V110ZM610.556 88.3693H611.556V87.3693H610.556V88.3693ZM588.082 88.3693V87.3693H587.082V88.3693H588.082ZM588.082 110V111H589.082V110H588.082ZM578.011 110V57.6364H576.011V110H578.011ZM577.011 58.6364H588.082V56.6364H577.011V58.6364ZM587.082 57.6364V79.2415H589.082V57.6364H587.082ZM588.082 80.2415H610.556V78.2415H588.082V80.2415ZM611.556 79.2415V57.6364H609.556V79.2415H611.556ZM610.556 58.6364H621.601V56.6364H610.556V58.6364ZM620.601 57.6364V110H622.601V57.6364H620.601ZM621.601 109H610.556V111H621.601V109ZM611.556 110V88.3693H609.556V110H611.556ZM610.556 87.3693H588.082V89.3693H610.556V87.3693ZM587.082 88.3693V110H589.082V88.3693H587.082ZM588.082 109H577.011V111H588.082V109ZM627.129 110H626.129V111H627.129V110ZM627.129 57.6364V56.6364H626.129V57.6364H627.129ZM662.413 57.6364H663.413V56.6364H662.413V57.6364ZM662.413 66.7642V67.7642H663.413V66.7642H662.413ZM638.2 66.7642V65.7642H637.2V66.7642H638.2ZM638.2 79.2415H637.2V80.2415H638.2V79.2415ZM660.598 79.2415H661.598V78.2415H660.598V79.2415ZM660.598 88.3693V89.3693H661.598V88.3693H660.598ZM638.2 88.3693V87.3693H637.2V88.3693H638.2ZM638.2 100.872H637.2V101.872H638.2V100.872ZM662.516 100.872H663.516V99.8722H662.516V100.872ZM662.516 110V111H663.516V110H662.516ZM628.129 110V57.6364H626.129V110H628.129ZM627.129 58.6364H662.413V56.6364H627.129V58.6364ZM661.413 57.6364V66.7642H663.413V57.6364H661.413ZM662.413 65.7642H638.2V67.7642H662.413V65.7642ZM637.2 66.7642V79.2415H639.2V66.7642H637.2ZM638.2 80.2415H660.598V78.2415H638.2V80.2415ZM659.598 79.2415V88.3693H661.598V79.2415H659.598ZM660.598 87.3693H638.2V89.3693H660.598V87.3693ZM637.2 88.3693V100.872H639.2V88.3693H637.2ZM638.2 101.872H662.516V99.8722H638.2V101.872ZM661.516 100.872V110H663.516V100.872H661.516ZM662.516 109H627.129V111H662.516V109ZM667.615 110H666.615V111H667.615V110ZM667.615 57.6364V56.6364H666.615V57.6364H667.615ZM678.686 57.6364H679.686V56.6364H678.686V57.6364ZM678.686 100.872H677.686V101.872H678.686V100.872ZM701.135 100.872H702.135V99.8722H701.135V100.872ZM701.135 110V111H702.135V110H701.135ZM668.615 110V57.6364H666.615V110H668.615ZM667.615 58.6364H678.686V56.6364H667.615V58.6364ZM677.686 57.6364V100.872H679.686V57.6364H677.686ZM678.686 101.872H701.135V99.8722H678.686V101.872ZM700.135 100.872V110H702.135V100.872H700.135ZM701.135 109H667.615V111H701.135V109ZM704.867 110H703.867V111H704.867V110ZM704.867 57.6364V56.6364H703.867V57.6364H704.867ZM739.537 57.6364H740.537V56.6364H739.537V57.6364ZM739.537 66.7642V67.7642H740.537V66.7642H739.537ZM715.938 66.7642V65.7642H714.938V66.7642H715.938ZM715.938 79.2415H714.938V80.2415H715.938V79.2415ZM737.236 79.2415H738.236V78.2415H737.236V79.2415ZM737.236 88.3693V89.3693H738.236V88.3693H737.236ZM715.938 88.3693V87.3693H714.938V88.3693H715.938ZM715.938 110V111H716.938V110H715.938ZM705.867 110V57.6364H703.867V110H705.867ZM704.867 58.6364H739.537V56.6364H704.867V58.6364ZM738.537 57.6364V66.7642H740.537V57.6364H738.537ZM739.537 65.7642H715.938V67.7642H739.537V65.7642ZM714.938 66.7642V79.2415H716.938V66.7642H714.938ZM715.938 80.2415H737.236V78.2415H715.938V80.2415ZM736.236 79.2415V88.3693H738.236V79.2415H736.236ZM737.236 87.3693H715.938V89.3693H737.236V87.3693ZM714.938 88.3693V110H716.938V88.3693H714.938ZM715.938 109H704.867V111H715.938V109Z" fill="black" mask="url(#path-5-outside-1_2_16)"/>
</g>
<defs>
<filter id="filter0_d_2_16" x="209.551" y="56.9205" width="533.986" height="61.821" filterUnits="userSpaceOnUse" color-interpolation-filters="sRGB">
<feFlood flood-opacity="0" result="BackgroundImageFix"/>
<feColorMatrix in="SourceAlpha" type="matrix" values="0 0 0 0 0 0 0 0 0 0 0 0 0 0 0 0 0 0 127 0" result="hardAlpha"/>
<feOffset dy="4"/>
<feGaussianBlur stdDeviation="2"/>
<feComposite in2="hardAlpha" operator="out"/>
<feColorMatrix type="matrix" values="0 0 0 0 0 0 0 0 0 0 0 0 0 0 0 0 0 0 0.25 0"/>
<feBlend mode="normal" in2="BackgroundImageFix" result="effect1_dropShadow_2_16"/>
<feBlend mode="normal" in="SourceGraphic" in2="effect1_dropShadow_2_16" result="shape"/>
</filter>
</defs>
</svg>
